<?xml version="1.0" standalone="no"?>
<!DOCTYPE svg PUBLIC "-//W3C//DTD SVG 20010904//EN"
 "http://www.w3.org/TR/2001/REC-SVG-20010904/DTD/svg10.dtd">
<svg version="1.0" xmlns="http://www.w3.org/2000/svg"
 width="221.000000pt" height="253.000000pt" viewBox="0 0 221.000000 253.000000"
 preserveAspectRatio="xMidYMid meet">


<g transform="translate(0.000000,253.000000) scale(0.100000,-0.100000)"
fill="#55beff" stroke="none" opacity="1">
<path d="M765 2431 c-121 -42 -151 -57 -239 -115 -91 -60 -172 -141 -233 -231
-56 -84 -79 -130 -110 -232 l-28 -88 -3 -748 c-2 -487 1 -760 7 -785 21 -76
121 -161 191 -162 20 0 37 17 84 80 108 146 327 330 444 372 17 7 32 15 32 19
0 4 -18 40 -39 81 -49 91 -105 242 -131 350 -47 195 -6 374 108 479 85 79 189
109 382 109 124 0 165 15 224 80 47 52 128 218 129 266 2 59 -17 68 -161 75
-70 4 -141 12 -158 18 -16 6 -47 34 -67 60 -44 59 -109 93 -222 116 -44 9 -81
18 -83 20 -7 7 29 103 44 115 7 7 14 17 14 22 0 16 -50 0 -104 -33 -27 -16
-51 -28 -53 -25 -10 10 38 97 77 140 l43 46 -34 -1 c-19 0 -70 -13 -114 -28z
m396 -448 c8 -21 7 -34 -3 -53 -18 -32 -38 -32 -57 1 -13 24 -13 29 2 53 22
34 45 33 58 -1z"/>
<path d="M1843 1833 c-8 -3 -13 -25 -13 -59 0 -84 -9 -94 -85 -94 -76 0 -78
-4 -73 -110 l3 -65 68 -5 c80 -6 87 -13 87 -91 0 -66 4 -69 86 -69 83 0 94 9
94 79 0 36 5 63 13 69 7 6 40 12 72 14 l60 3 0 85 0 85 -50 3 c-96 5 -95 4
-95 77 0 53 -3 66 -19 75 -20 10 -125 13 -148 3z"/>
<path d="M1200 1466 c0 -2 7 -23 15 -46 24 -67 20 -77 -34 -104 -27 -14 -65
-41 -85 -59 -31 -30 -36 -40 -36 -81 0 -46 -1 -47 -45 -66 -58 -25 -71 -55
-55 -126 15 -68 62 -142 96 -150 14 -4 62 -2 105 3 129 15 169 -18 169 -135 0
-47 -5 -67 -26 -97 l-25 -38 36 6 c56 9 146 54 189 95 21 20 51 64 67 97 27
59 28 59 28 25 1 -78 -73 -175 -163 -215 -60 -26 -115 -39 -256 -61 -210 -32
-355 -97 -498 -222 -64 -55 -182 -194 -182 -213 0 -5 228 -9 583 -9 l582 0 50
24 c159 75 282 257 302 446 13 133 -46 315 -157 483 -146 220 -324 362 -534
426 -60 19 -126 28 -126 17z m18 -338 c-6 -18 -67 -48 -84 -41 -23 8 -17 41 9
46 48 9 79 7 75 -5z"/>
</g>
</svg>
